# This file uses centimeters as units for non-parametric coordinates.

mtllib sphere.mtl
g default
v 0.000000 -0.356822 -0.934172
v -0.356822 -0.934172 0.000000
v -0.934172 0.000000 -0.356822
v -0.577350 -0.577350 -0.577350
v -0.577350 -0.577350 0.577350
v 0.000000 -0.356822 0.934172
v -0.356822 0.934172 0.000000
v -0.934172 0.000000 0.356822
v -0.577350 0.577350 -0.577350
v -0.577350 0.577350 0.577350
v 0.000000 0.356822 -0.934172
v 0.356822 -0.934172 0.000000
v 0.934172 0.000000 -0.356822
v 0.577350 -0.577350 -0.577350
v 0.577350 -0.577350 0.577350
v 0.000000 0.356822 0.934172
v 0.356822 0.934172 0.000000
v 0.934172 0.000000 0.356822
v 0.577350 0.577350 -0.577350
v 0.577350 0.577350 0.577350
v 0.000000 0.850651 -0.525731
v 0.850651 0.525731 0.000000
v 0.000000 0.850651 0.525731
v -0.850651 0.525731 0.000000
v 0.000000 -0.850651 -0.525731
v 0.000000 -0.850651 0.525731
v 0.525731 0.000000 -0.850651
v -0.525731 -0.000000 -0.850651
v -0.850651 -0.525731 0.000000
v -0.525731 0.000000 0.850651
v 0.850651 -0.525731 0.000000
v 0.525731 -0.000000 0.850651
vt 1.000000 0.383860
vt 0.250000 0.116140
vt 0.191930 0.500000
vt 0.125000 0.304087
vt 0.375000 0.304087
vt 0.500000 0.383860
vt 0.250000 0.883860
vt 0.308070 0.500000
vt 0.125000 0.695913
vt 0.375000 0.695913
vt 1.000000 0.616140
vt 0.750000 0.116140
vt 0.808070 0.500000
vt 0.875000 0.304087
vt 0.625000 0.304087
vt 0.500000 0.616140
vt 0.750000 0.883860
vt 0.691930 0.500000
vt 0.875000 0.695913
vt 0.625000 0.695913
vt 1.000000 0.823792
vt 0.750000 0.676208
vt 0.500000 0.823792
vt 0.250000 0.676208
vt 1.000000 0.176208
vt 0.500000 0.176208
vt 0.911896 0.500000
vt 0.088104 0.500000
vt 0.250000 0.323792
vt 0.411896 0.500000
vt 0.750000 0.323792
vt 0.588104 0.500000
vt 1.250000 0.883860
vt 1.125000 0.695913
vt 1.250000 0.116140
vt 1.125000 0.304087
vt 1.088104 0.500000
vn -0.356822 0.934172 -0.000000
vn 0.356822 0.934172 0.000000
vn -0.000000 0.850651 -0.525731
vn 0.577350 0.577350 -0.577350
vn -0.000000 0.356822 -0.934172
vn -0.577350 0.577350 -0.577350
vn 0.934172 0.000000 0.356822
vn 0.934172 -0.000000 -0.356822
vn 0.850651 0.525731 0.000000
vn 0.577350 0.577350 0.577350
vn 0.000000 0.356822 0.934172
vn 0.000000 0.850651 0.525731
vn -0.577350 0.577350 0.577350
vn -0.934172 0.000000 -0.356822
vn -0.934172 -0.000000 0.356822
vn -0.850651 0.525731 -0.000000
vn 0.356822 -0.934172 -0.000000
vn -0.356822 -0.934172 0.000000
vn 0.000000 -0.850651 -0.525731
vn -0.577350 -0.577350 -0.577350
vn 0.000000 -0.356822 -0.934172
vn 0.577350 -0.577350 -0.577350
vn -0.000000 -0.850651 0.525731
vn 0.577350 -0.577350 0.577350
vn -0.000000 -0.356822 0.934172
vn -0.577350 -0.577350 0.577350
vn 0.525731 -0.000000 -0.850651
vn -0.525731 0.000000 -0.850651
vn -0.850651 -0.525731 0.000000
vn -0.525731 -0.000000 0.850651
vn 0.850651 -0.525731 -0.000000
vn 0.525731 0.000000 0.850651
s 1
g pPlatonic1
usemtl initialShadingGroup
f 7/33/1 17/17/2 21/21/3
f 17/17/2 19/19/4 21/21/3
f 19/19/4 11/11/5 21/21/3
f 11/11/5 9/34/6 21/21/3
f 9/34/6 7/33/1 21/21/3
f 18/18/7 13/13/8 22/22/9
f 13/13/8 19/19/4 22/22/9
f 19/19/4 17/17/2 22/22/9
f 17/17/2 20/20/10 22/22/9
f 20/20/10 18/18/7 22/22/9
f 16/16/11 20/20/10 23/23/12
f 20/20/10 17/17/2 23/23/12
f 17/17/2 7/7/1 23/23/12
f 7/7/1 10/10/13 23/23/12
f 10/10/13 16/16/11 23/23/12
f 3/3/14 8/8/15 24/24/16
f 8/8/15 10/10/13 24/24/16
f 10/10/13 7/7/1 24/24/16
f 7/7/1 9/9/6 24/24/16
f 9/9/6 3/3/14 24/24/16
f 12/12/17 2/35/18 25/25/19
f 2/35/18 4/36/20 25/25/19
f 4/36/20 1/1/21 25/25/19
f 1/1/21 14/14/22 25/25/19
f 14/14/22 12/12/17 25/25/19
f 2/2/18 12/12/17 26/26/23
f 12/12/17 15/15/24 26/26/23
f 15/15/24 6/6/25 26/26/23
f 6/6/25 5/5/26 26/26/23
f 5/5/26 2/2/18 26/26/23
f 14/14/22 1/1/21 27/27/27
f 1/1/21 11/11/5 27/27/27
f 11/11/5 19/19/4 27/27/27
f 19/19/4 13/13/8 27/27/27
f 13/13/8 14/14/22 27/27/27
f 1/1/21 4/36/20 28/37/28
f 4/4/20 3/3/14 28/28/28
f 3/3/14 9/9/6 28/28/28
f 9/34/6 11/11/5 28/37/28
f 11/11/5 1/1/21 28/37/28
f 2/2/18 5/5/26 29/29/29
f 5/5/26 8/8/15 29/29/29
f 8/8/15 3/3/14 29/29/29
f 3/3/14 4/4/20 29/29/29
f 4/4/20 2/2/18 29/29/29
f 5/5/26 6/6/25 30/30/30
f 6/6/25 16/16/11 30/30/30
f 16/16/11 10/10/13 30/30/30
f 10/10/13 8/8/15 30/30/30
f 8/8/15 5/5/26 30/30/30
f 12/12/17 14/14/22 31/31/31
f 14/14/22 13/13/8 31/31/31
f 13/13/8 18/18/7 31/31/31
f 18/18/7 15/15/24 31/31/31
f 15/15/24 12/12/17 31/31/31
f 6/6/25 15/15/24 32/32/32
f 15/15/24 18/18/7 32/32/32
f 18/18/7 20/20/10 32/32/32
f 20/20/10 16/16/11 32/32/32
f 16/16/11 6/6/25 32/32/32
